Coordinates
version=1
nRows=29
nColumns=24
inDegrees=yes

Units are S.I. units (second, meters, Newtons, ...)
Angles are in degrees.

endheader
time	pelvis_tilt	pelvis_list	pelvis_rotation	pelvis_tx	pelvis_ty	pelvis_tz	hip_flexion_r	hip_adduction_r	hip_rotation_r	knee_angle_r	ankle_angle_r	subtalar_angle_r	mtp_angle_r	hip_flexion_l	hip_adduction_l	hip_rotation_l	knee_angle_l	ankle_angle_l	subtalar_angle_l	mtp_angle_l	lumbar_extension	lumbar_bending	lumbar_rotation
      1.68000000	     22.14860440	     -5.75260034	      3.79599711	     -0.18583062	      0.85932617	     -0.03407173	     -5.83102421	      6.16799804	    -18.13992904	    -33.66615898	     31.08755809	      3.32012022	     32.45071789	    -21.11464101	     -5.33202870	    -13.07166189	    -19.86263536	     29.40887964	     13.67423368	     29.96933003	    -38.05132741	      5.21473441	    -10.53735252
      1.68500000	     22.25330822	     -5.97811757	      3.94869764	     -0.18037495	      0.85919508	     -0.03383492	     -6.07836746	      6.70740637	    -18.38145552	    -30.74751980	     30.85145218	      3.73229368	     32.71858014	    -21.59579887	     -5.69711152	    -13.16263910	    -19.96591604	     29.76538004	     13.98762556	     29.79249165	    -38.15359284	      5.50712393	    -10.50942691
      1.69000000	     22.35115964	     -6.18948520	      4.08700837	     -0.17483001	      0.85899154	     -0.03348562	     -6.37502223	      7.25371343	    -18.61063526	    -27.71963073	     30.51380839	      4.15607479	     33.11371693	    -22.07404057	     -6.05891326	    -13.34502978	    -20.08263302	     30.11688997	     14.32995510	     29.59123438	    -38.23964664	      5.76671997	    -10.50909954
      1.69500000	     22.43794788	     -6.34864648	      4.25493929	     -0.16930156	      0.85869949	     -0.03317245	     -6.70002372	      7.75630180	    -18.88552718	    -24.62214005	     30.09947944	      4.61996143	     33.49673726	    -22.52427139	     -6.37290266	    -13.40861797	    -20.21829839	     30.47503608	     14.64271306	     29.44562273	    -38.31077036	      5.99520475	    -10.51038448
      1.70000000	     22.46063745	     -6.52790794	      4.36894127	     -0.16369214	      0.85821962	     -0.03265198	     -6.98741500	      8.30181383	    -19.06095658	    -21.45922778	     29.42820133	      4.86036346	     35.37643023	    -22.88439651	     -6.72143725	    -13.65256317	    -20.45809542	     31.00329625	     15.11068295	     28.76758458	    -38.30675785	      6.20026463	    -10.49446290
      1.70500000	     22.50324890	     -6.57842033	      4.52734616	     -0.15801967	      0.85773657	     -0.03232297	     -7.31229658	      8.68254980	    -19.46548181	    -18.38526336	     28.87554203	      5.56508088	     35.51417687	    -23.32413394	     -6.90543844	    -13.64710456	    -20.51415303	     31.28166853	     15.23961705	     28.73634713	    -38.31186065	      6.32575394	    -10.58393156
      1.71000000	     22.52584844	     -6.61376599	      4.65069383	     -0.15230808	      0.85712686	     -0.03182942	     -7.64279355	      9.07069211	    -19.79630058	    -15.30048503	     28.25430614	      6.21993247	     35.81804422	    -23.72281450	     -7.09097637	    -13.75367502	    -20.65324299	     31.59893449	     15.54742445	     28.71124014	    -38.29188976	      6.40431683	    -10.63529420
      1.71500000	     22.46931710	     -6.63516003	      4.72596435	     -0.14656835	      0.85632968	     -0.03118864	     -7.89086376	      9.44689627	    -20.05665875	    -12.26866226	     27.30732618	      6.66108030	     38.25179920	    -24.00829152	     -7.26617319	    -13.94703998	    -20.89554604	     31.98176951	     15.97169330	     28.29884500	    -38.18533455	      6.43726714	    -10.66094874
      1.72000000	     22.39313926	     -6.57597115	      4.80712997	     -0.14081634	      0.85544545	     -0.03065136	     -8.08201933	      9.70756701	    -20.46581057	     -9.49434781	     26.62653931	      7.50683343	     38.33487082	    -24.30666505	     -7.32198967	    -13.97171248	    -21.02611550	     32.28225851	     16.04392025	     28.31134885	    -38.05709571	      6.41120807	    -10.74542706
      1.72500000	     22.34275128	     -6.44612552	      4.85727480	     -0.13507004	      0.85454535	     -0.03001645	     -8.27882975	      9.88517057	    -20.91477412	     -6.92360745	     25.96493838	      8.51063502	     38.76623405	    -24.62458322	     -7.31720872	    -14.05551533	    -21.20760043	     32.56002579	     16.39482434	     28.30960381	    -37.95816972	      6.29300994	    -10.82186887
      1.73000000	     22.22265146	     -6.32254013	      4.91028743	     -0.12932304	      0.85350381	     -0.02941263	     -8.34773307	     10.04882237	    -21.45501100	     -4.61144230	     25.31049233	      9.58060266	     39.31975475	    -24.84975589	     -7.31182224	    -14.08502105	    -21.41858141	     32.85958311	     16.60328052	     28.30080027	    -37.78395030	      6.19246575	    -10.89798995
      1.73500000	     22.02765192	     -6.18467298	      4.92556265	     -0.12360419	      0.85235819	     -0.02878816	     -8.26181746	     10.15806428	    -22.10454642	     -2.61664981	     24.63262617	     10.85216477	     40.98346869	    -24.97888041	     -7.26704821	    -14.11643854	    -21.66751906	     33.14411854	     16.62146455	     28.19081552	    -37.53621499	      6.06344738	    -10.96278311
      1.74000000	     21.86840478	     -6.03901344	      4.94052717	     -0.11786969	      0.85125767	     -0.02810236	     -8.22174816	     10.27278454	    -22.68610055	     -0.76897837	     23.98183722	     12.00937772	     41.40773284	    -25.16363418	     -7.22937092	    -14.15990324	    -21.88126992	     33.38617163	     16.90721226	     28.21932345	    -37.32434720	      5.92180344	    -11.00642845
      1.74500000	     21.69815636	     -5.89136630	      4.97423665	     -0.11219371	      0.85014014	     -0.02747154	     -8.11471038	     10.36134545	    -23.39379505	      0.78977093	     23.44571474	     13.39635266	     41.94694364	    -25.29680835	     -7.19436815	    -14.14348492	    -22.16918567	     33.62092725	     17.03004852	     28.25987084	    -37.10765755	      5.79638389	    -11.04349845
      1.75000000	     21.53440881	     -5.75569182	      5.02695108	     -0.10652198	      0.84903439	     -0.02684268	     -8.00344691	     10.46006357	    -24.10294382	      2.15781185	     22.93068939	     14.73548445	     42.37089211	    -25.40647440	     -7.19177835	    -14.12722302	    -22.52691700	     33.87826778	     17.19364881	     28.33477453	    -36.89498333	      5.69432751	    -11.10028756
      1.75500000	     21.36262682	     -5.63407128	      5.07618311	     -0.10085766	      0.84795057	     -0.02622394	     -7.85801952	     10.55371025	    -24.83872181	      3.28882420	     22.43870150	     16.13111623	     42.81321416	    -25.49615903	     -7.20056137	    -14.09876962	    -22.90491711	     34.08247942	     17.30761248	     28.43920936	    -36.67604066	      5.60975963	    -11.12125792
      1.76000000	     21.19410261	     -5.53208020	      5.14294295	     -0.09519416	      0.84690193	     -0.02561470	     -7.70735984	     10.65698736	    -25.56341263	      4.21959384	     21.95039309	     17.45018436	     43.22193540	    -25.55779863	     -7.24628206	    -14.06448228	    -23.34965728	     34.27105185	     17.41286504	     28.58320578	    -36.45811530	      5.55576084	    -11.13825446
      1.76500000	     21.03264565	     -5.47195404	      5.23385610	     -0.08956910	      0.84587976	     -0.02504308	     -7.56800455	     10.79494931	    -26.21842374	      4.99064929	     21.44669518	     18.60819779	     43.54806740	    -25.58710784	     -7.35026214	    -13.99667690	    -23.86876590	     34.43350585	     17.50190266	     28.74920922	    -36.25058201	      5.56148190	    -11.10886330
      1.77000000	     20.89474908	     -5.36624259	      5.30619423	     -0.08391633	      0.84496428	     -0.02450419	     -7.44552916	     10.85094421	    -26.91513060	      5.52879826	     21.00787882	     19.91717761	     44.02966762	    -25.64452569	     -7.39586833	    -13.92532155	    -24.38217351	     34.52686689	     17.59969551	     29.04332774	    -36.06847613	      5.52320293	    -11.12248248
      1.77500000	     20.75433835	     -5.31545627	      5.42236864	     -0.07829043	      0.84407684	     -0.02400147	     -7.33173987	     10.95924502	    -27.51748202	      5.92973380	     20.51150332	     20.90145085	     44.46337779	    -25.62498744	     -7.53328080	    -13.83545341	    -25.04694557	     34.59194766	     17.66339446	     29.42717150	    -35.88143751	      5.56346457	    -11.10924938
      1.78000000	     20.63742780	     -5.28545808	      5.57003769	     -0.07271961	      0.84324614	     -0.02355148	     -7.24701509	     11.07458782	    -28.02736637	      6.16963397	     19.95673201	     21.53947506	     44.74065028	    -25.56671217	     -7.71670233	    -13.71859458	    -25.83849682	     34.71895769	     17.72062686	     29.78014409	    -35.72455687	      5.64731718	    -11.11198640
      1.78500000	     20.59343916	     -5.24648655	      5.72884658	     -0.06706264	      0.84261531	     -0.02319164	     -7.27737111	     11.16782207	    -28.53221269	      6.31238472	     19.32191073	     22.18696034	     45.87395944	    -25.59395330	     -7.88391206	    -13.56729871	    -26.59069957	     34.49943312	     17.55243171	     31.35420718	    -35.63465189	      5.74282837	    -11.09967182
      1.79000000	     20.46424937	     -5.24167738	      5.87828470	     -0.06150702	      0.84187988	     -0.02278118	     -7.22087699	     11.26363585	    -28.74908049	      6.31483480	     18.72996116	     22.35736071	     45.91138450	    -25.41971152	     -8.10966239	    -13.42465518	    -27.59598352	     34.53960793	     17.64670238	     31.54480020	    -35.46586555	      5.86327350	    -11.06682802
      1.79500000	     20.41025475	     -5.26046951	      6.06757671	     -0.05585140	      0.84132028	     -0.02247333	     -7.26156336	     11.38056525	    -29.03184835	      6.21596922	     18.07267171	     22.47361429	     46.91370728	    -25.28890915	     -8.38817172	    -13.30407485	    -28.66024760	     34.25700712	     17.59810944	     33.58097170	    -35.36074619	      6.03972234	    -11.03701015
      1.80000000	     20.37530202	     -5.28287103	      6.31468572	     -0.05028722	      0.84084807	     -0.02229069	     -7.32739617	     11.48754680	    -29.22373576	      6.01059180	     17.42753445	     22.27121488	     46.89263079	    -25.10054319	     -8.68621010	    -13.02562599	    -29.85287475	     34.12451975	     17.54665831	     33.73096741	    -35.28438814	      6.26100877	    -11.03925691
      1.80500000	     20.32699289	     -5.32783445	      6.49922384	     -0.04475251	      0.84039684	     -0.02197211	     -7.44529990	     11.61013584	    -28.91460043	      5.85588208	     16.63854399	     21.25468235	     47.56915902	    -24.83059374	     -9.00736531	    -12.86912317	    -31.19328023	     33.73586425	     17.40085914	     35.67839542	    -35.20065943	      6.46852476	    -10.98504330
      1.81000000	     20.31720748	     -5.39050807	      6.82208020	     -0.03916640	      0.84008640	     -0.02196735	     -7.52158673	     11.72473551	    -29.10604316	      5.42537805	     16.04292267	     20.91045210	     47.60277070	    -24.51769727	     -9.39682874	    -12.52627307	    -32.64936075	     33.46356827	     17.36281787	     35.98012748	    -35.13953421	      6.78501991	    -11.03673439
      1.81500000	     20.30522741	     -5.44752739	      7.03608247	     -0.03364975	      0.83984168	     -0.02175419	     -7.67415420	     11.83166084	    -28.70110263	      5.11372460	     15.27464558	     19.59856990	     48.94444704	    -24.15453343	     -9.74951368	    -12.29668973	    -34.18958629	     32.66080966	     17.02873561	     39.90167988	    -35.09611779	      7.03383764	    -10.98545231
      1.82000000	     20.26411029	     -5.55491318	      7.33346897	     -0.02813710	      0.83957418	     -0.02168232	     -7.77405572	     11.97602105	    -28.32062824	      4.70587327	     14.70204199	     18.39619632	     48.93685657	    -23.64365100	    -10.19301783	    -11.95438108	    -35.94684487	     32.12826854	     16.89423155	     40.48776418	    -35.00854786	      7.38227489	    -11.00084767
